# xmcd
# Copyright (C) 1995-1998 Ti Kan
#
# Track frame offsets:
#       150
#       99755
#       121771
#       138316
#       160188
#       179881
#       197169
#       213442
#       225802
#
# Disc length: 3238 seconds
#
# Revision: 0
# Processed by: cddbd v1.5.2PL0 Copyright (c) Steve Scherf et al.
# Submitted via: CD-Import v1.0
#
DISCID=700ca409
DTITLE=Paddy Mcaloon - I Trawl The Megahertz
DYEAR=03
DGENRE=
TTITLE0=I Trawl The Megahertz
TTITLE1=Esprit De Corps
TTITLE2=Fall From Grace
TTITLE3=We Were Poor
TTITLE4=Orchid 7
TTITLE5=I'm 49
TTITLE6=Sleeping Rough
TTITLE7=Ineffable
TTITLE8=but We Were Happy
EXTD=
EXTT0=
EXTT1=
EXTT2=
EXTT3=
EXTT4=
EXTT5=
EXTT6=
EXTT7=
EXTT8=
PLAYORDER=
